<svg xmlns="http://www.w3.org/2000/svg" viewBox="0 0 520 330" role="img" aria-labelledby="t d"><title id="t">MMGC General Trading</title><desc id="d">MMGC brand mark inspired by the company mountain, sunrise and Basotho hat identity.</desc><rect width="520" height="330" rx="28" fill="#fff"/><g transform="translate(34 28)"><circle cx="118" cy="72" r="46" fill="#f3ad27"/><g stroke="#f3ad27" stroke-width="8" stroke-linecap="round"><path d="M118 10V0"/><path d="M82 18L70 0"/><path d="M154 18L166 0"/><path d="M56 42L32 26"/><path d="M180 42L204 26"/></g><path d="M10 146L108 68l48 38 48-52 116 92Z" fill="#1673a7"/><path d="M10 146L108 84l47 40 51-54 114 76Z" fill="#0e5d91" opacity=".45"/><path d="M0 164c78-38 168-28 254-13 46 8 87 9 132-2-86 54-254 45-386 15Z" fill="#2b8e3e"/><path d="M4 190c104-34 231-15 383-5-116 44-264 43-383 5Z" fill="#69aa38"/><path d="M305 50c36 8 62 36 62 70 0 15-6 28-14 39h-96c-9-11-14-24-14-39 0-34 26-62 62-70Z" fill="#c6a166" stroke="#8a6a38" stroke-width="4"/><path d="M305 50c-6 21-6 42 0 62m0-62c8 20 8 42 0 62" stroke="#6c512c" stroke-width="5" fill="none"/><path d="M258 159h96l22 20H236Z" fill="#a87c45"/><path d="M254 144h103v17H254Z" fill="#173d73"/><circle cx="273" cy="152" r="4" fill="#f3ad27"/><circle cx="290" cy="152" r="4" fill="#2b8e3e"/><circle cx="307" cy="152" r="4" fill="#f3ad27"/><circle cx="324" cy="152" r="4" fill="#2b8e3e"/><circle cx="341" cy="152" r="4" fill="#f3ad27"/></g><text x="40" y="258" font-family="Arial,Helvetica,sans-serif" font-size="92" font-weight="900" letter-spacing="2"><tspan fill="#2f9b42">MM</tspan><tspan fill="#0d5e9a">GC</tspan></text><text x="67" y="303" font-family="Arial,Helvetica,sans-serif" font-size="31" font-weight="800" letter-spacing="7" fill="#0b2f57">GENERAL TRADING</text></svg>